#Comment line ignore any data following # character 
#Hierarchical Translation and Rotation (.htr) file 
[Header]	
#Header keywords are followed by a single value 
FileType HTR		#Single word string
DataType HTRS		#Translation followed by rotation and scale data
FileVersion 1		#integer
NumSegments 25		#integer
NumFrames 5		#integer
DataFrameRate 30		#integer, data frame rate in this file
EulerRotationOrder ZYX
CalibrationUnits mm
RotationUnits Degrees
GlobalAxisofGravity Y
BoneLengthAxis Y
ScaleFactor 1.00
[SegmentNames&Hierarchy]
#CHILD	PARENT
BN_Tick_Root GLOBAL
BN_Torso BN_Tick_Root
BN_L_Leg_Front01 BN_Torso
BN_L_Leg_Rear01 BN_Torso
BN_MetalTop BN_Torso
BN_Neck BN_Torso
BN_R_Leg_Front01 BN_Torso
BN_R_Leg_Rear01 BN_Torso
BN_Sack BN_Torso
BN_L_Leg_Front02 BN_L_Leg_Front01
BN_L_Leg_Front03 BN_L_Leg_Front02
BN_L_Leg_Rear02 BN_L_Leg_Rear01
BN_L_Leg_Rear03 BN_L_Leg_Rear02
BN_Head BN_Neck
BN_Needle BN_Head
BN_R_Leg_Front02 BN_R_Leg_Front01
BN_R_Leg_Front03 BN_R_Leg_Front02
BN_R_Leg_Rear02 BN_R_Leg_Rear01
BN_R_Leg_Rear03 BN_R_Leg_Rear02
BN_SackDef01 BN_Sack
BN_SackDef02 BN_Sack
BN_SackDef03 BN_Sack
BN_SackDef04 BN_Sack
BN_SackDef05 BN_Sack
BN_SackDef06 BN_Sack
[BasePosition]
#SegmentName Tx, Ty, Tz, Rx, Ry, Rz, BoneLength
BN_Tick_Root 0.000000 0.000000 0.000000 -90.000000 0.000000 0.000000 10.000000 
BN_Torso 0.000000 0.000000 0.000000 0.000000 0.000000 0.000000 10.000000 
BN_L_Leg_Front01 0.000000 0.000000 0.000000 0.000000 0.000000 0.000000 10.000000 
BN_L_Leg_Rear01 0.000000 0.000000 0.000000 0.000000 0.000000 0.000000 10.000000 
BN_MetalTop 0.000000 0.000000 0.000000 0.000000 0.000000 0.000000 10.000000 
BN_Neck 0.000000 0.000000 0.000000 0.000000 0.000000 0.000000 10.000000 
BN_R_Leg_Front01 0.000000 0.000000 0.000000 0.000000 0.000000 0.000000 10.000000 
BN_R_Leg_Rear01 0.000000 0.000000 0.000000 0.000000 0.000000 0.000000 10.000000 
BN_Sack 0.000000 0.000000 0.000000 0.000000 0.000000 0.000000 10.000000 
BN_L_Leg_Front02 0.000000 0.000000 0.000000 0.000000 0.000000 0.000000 10.000000 
BN_L_Leg_Front03 0.000000 0.000000 0.000000 0.000000 0.000000 0.000000 10.000000 
BN_L_Leg_Rear02 0.000000 0.000000 0.000000 0.000000 0.000000 0.000000 10.000000 
BN_L_Leg_Rear03 0.000000 0.000000 0.000000 0.000000 0.000000 0.000000 10.000000 
BN_Head 0.000000 0.000000 0.000000 0.000000 0.000000 0.000000 10.000000 
BN_Needle 0.000000 0.000000 0.000000 0.000000 0.000000 0.000000 10.000000 
BN_R_Leg_Front02 0.000000 0.000000 0.000000 0.000000 0.000000 0.000000 10.000000 
BN_R_Leg_Front03 0.000000 0.000000 0.000000 0.000000 0.000000 0.000000 10.000000 
BN_R_Leg_Rear02 0.000000 0.000000 0.000000 0.000000 0.000000 0.000000 10.000000 
BN_R_Leg_Rear03 0.000000 0.000000 0.000000 0.000000 0.000000 0.000000 10.000000 
BN_SackDef01 0.000000 0.000000 0.000000 0.000000 0.000000 0.000000 10.000000 
BN_SackDef02 0.000000 0.000000 0.000000 0.000000 0.000000 0.000000 10.000000 
BN_SackDef03 0.000000 0.000000 0.000000 0.000000 0.000000 0.000000 10.000000 
BN_SackDef04 0.000000 0.000000 0.000000 0.000000 0.000000 0.000000 10.000000 
BN_SackDef05 0.000000 0.000000 0.000000 0.000000 0.000000 0.000000 10.000000 
BN_SackDef06 0.000000 0.000000 0.000000 0.000000 0.000000 0.000000 10.000000 
#Beginning of Data. Separated by tabs
#Fr	Tx	Ty	Tz	Rx	Ry	Rz	SF
[BN_Tick_Root]
1 0.000000 0.000000 0.000000 0.000000 0.000000 -0.000020 0.000000
2 0.000000 -0.000002 0.000000 0.000000 0.000000 -0.000020 0.000002
3 0.000000 -0.000004 0.000000 0.000000 0.000000 -0.000020 0.000004
4 0.000000 -0.000007 0.000000 0.000000 0.000000 -0.000020 0.000007
5 0.000000 -0.000009 0.000000 0.000000 0.000000 -0.000020 0.000009
[BN_Torso]
1 10.022041 31.810827 206.720535 -21.345894 -3.389756 4.886087 209.393768
2 10.022041 34.480053 207.685791 -21.196243 -3.740145 4.996878 210.766937
3 10.022041 37.149281 208.651077 -21.047203 -4.090820 5.106796 212.169235
4 10.022041 39.818508 209.616348 -20.535246 -4.649768 5.272087 213.600021
5 10.022041 49.886753 211.516647 -19.974573 -5.735554 5.609247 217.550964
[BN_L_Leg_Front01]
1 -68.477791 10.734189 -26.804373 -67.311951 33.320770 130.823746 74.316254
2 -68.477791 10.734189 -26.804373 -66.984505 33.423481 131.331543 74.316254
3 -68.477791 10.734189 -26.804373 -66.655624 33.523758 131.840637 74.316254
4 -68.477791 10.734189 -26.804373 -65.973625 34.182331 132.926727 74.316254
5 -68.477791 10.734189 -26.804373 -65.148293 35.042553 135.137039 74.316254
[BN_L_Leg_Rear01]
1 -72.133743 -73.994843 -18.268616 23.429167 60.443165 -171.812225 104.939293
2 -72.133743 -73.994843 -18.268616 23.880329 60.004715 -171.144943 104.939293
3 -72.133743 -73.994843 -18.268616 24.315443 59.563675 -170.493210 104.939293
4 -72.133743 -73.994843 -18.268616 25.524212 58.833359 -168.882355 104.939293
5 -72.133743 -73.994843 -18.268616 27.248669 57.312706 -166.038177 104.939293
[BN_MetalTop]
1 0.000008 13.737477 26.403606 92.251366 -17.585709 -97.417938 29.763546
2 0.000008 13.737477 26.403606 92.242676 -17.077343 -97.391373 29.763546
3 0.000008 13.737477 26.403606 92.234245 -16.568966 -97.364952 29.763546
4 0.000008 13.737477 26.403606 92.229210 -15.790008 -97.333527 29.763546
5 0.000008 13.737477 26.403606 92.209435 -14.238503 -97.269501 29.763546
[BN_Neck]
1 0.000014 95.233284 10.002091 -89.999672 -65.297531 89.999657 95.757088
2 0.000014 95.233284 10.002091 -89.999672 -65.297531 89.999657 95.757088
3 0.000014 95.233284 10.002091 -89.999672 -65.297531 89.999657 95.757088
4 0.000014 95.233284 10.002091 -89.999672 -65.297531 89.999657 95.757088
5 0.000014 95.233284 10.002091 -89.999672 -65.297531 89.999657 95.757088
[BN_R_Leg_Front01]
1 68.477768 10.734107 -26.804314 75.747475 43.678497 52.725151 74.316193
2 68.477768 10.734107 -26.804314 76.194542 44.492714 52.840969 74.316193
3 68.477768 10.734107 -26.804314 76.650291 45.306225 52.967438 74.316193
4 68.477768 10.734107 -26.804314 77.297325 47.171883 52.976200 74.316193
5 68.477768 10.734107 -26.804314 79.179016 50.522850 53.049156 74.316193
[BN_R_Leg_Rear01]
1 72.133751 -73.994873 -18.268644 24.175869 76.398041 35.262505 104.939331
2 72.133751 -73.994873 -18.268644 23.997854 76.970901 34.615070 104.939331
3 72.133751 -73.994873 -18.268644 23.781784 77.543182 33.930080 104.939331
4 72.133751 -73.994873 -18.268644 21.810844 78.682518 31.031647 104.939331
5 72.133751 -73.994873 -18.268644 16.065723 80.722542 23.213909 104.939331
[BN_Sack]
1 -0.000000 -78.024918 33.657791 91.379875 -11.014523 -97.199577 84.974907
2 -0.000000 -78.024918 33.657791 91.380585 -10.819092 -97.194862 84.974907
3 -0.000000 -78.024918 33.657791 91.381287 -10.623649 -97.190140 84.974907
4 -0.000000 -78.024918 33.657791 91.381668 -10.222621 -97.180107 84.974907
5 -0.000000 -78.024918 33.657791 91.376526 -9.527815 -97.158760 84.974907
[BN_L_Leg_Front02]
1 142.805023 -0.000015 -0.000104 0.117850 0.511812 -113.671814 142.805023
2 142.805023 -0.000015 -0.000104 0.115156 0.515685 -114.110878 142.805023
3 142.805023 -0.000015 -0.000104 0.112432 0.519537 -114.549919 142.805023
4 142.805023 -0.000015 -0.000104 0.110167 0.531258 -115.294960 142.805023
5 142.805023 -0.000015 -0.000104 0.098479 0.556940 -117.739105 142.805023
[BN_L_Leg_Front03]
1 124.143021 -0.000045 0.000007 0.351551 -0.378535 122.307297 124.143021
2 124.143021 -0.000045 0.000007 0.352390 -0.378586 122.710220 124.143021
3 124.143021 -0.000045 0.000007 0.353229 -0.378642 123.113152 124.143021
4 124.143021 -0.000045 0.000007 0.353046 -0.374004 123.781456 124.143021
5 124.143021 -0.000045 0.000007 0.353742 -0.362754 125.894661 124.143021
[BN_L_Leg_Rear02]
1 139.939041 0.000075 -0.000022 0.086134 -0.238421 95.154358 139.939041
2 139.939041 0.000075 -0.000022 0.085430 -0.232810 94.757828 139.939041
3 139.939041 0.000075 -0.000022 0.084687 -0.227204 94.361290 139.939041
4 139.939041 0.000075 -0.000022 0.086927 -0.219444 93.332138 139.939041
5 139.939041 0.000075 -0.000022 0.091182 -0.217710 91.101685 139.939041
[BN_L_Leg_Rear03]
1 142.839615 0.000179 -0.000060 0.000485 -0.002297 -113.856178 142.839615
2 142.839615 0.000179 -0.000060 0.000476 -0.002298 -113.403519 142.839615
3 142.839615 0.000179 -0.000060 0.000467 -0.002300 -112.950859 142.839615
4 142.839615 0.000179 -0.000060 0.000443 -0.002305 -111.760231 142.839615
5 142.839615 0.000179 -0.000060 0.000390 -0.002315 -109.122795 142.839615
[BN_Head]
1 57.062447 -0.000030 0.000000 -1.237223 8.807455 -10.495423 57.062447
2 57.062447 -0.000030 0.000000 -0.161090 10.028132 -5.791448 57.062447
3 57.062447 -0.000030 0.000000 1.017551 11.157228 -1.046893 57.062447
4 57.062447 -0.000030 0.000000 1.954750 12.951767 3.036517 57.062447
5 57.062447 -0.000030 0.000000 2.051900 16.602884 5.371578 57.062447
[BN_Needle]
1 33.915253 69.677475 -0.000048 0.000003 0.000030 87.896805 77.493187
2 33.915249 69.677475 -0.000047 0.000003 0.000030 87.896805 77.493187
3 33.915249 69.677483 -0.000047 0.000003 0.000030 87.896805 77.493195
4 33.915245 69.677483 -0.000047 0.000003 0.000030 87.896805 77.493195
5 33.915241 69.677483 -0.000046 0.000003 0.000030 87.896805 77.493187
[BN_R_Leg_Front02]
1 142.804947 -0.000060 0.000060 -0.067904 0.618960 123.310448 142.804947
2 142.804947 -0.000060 0.000060 -0.065012 0.622514 123.658295 142.804947
3 142.804947 -0.000060 0.000060 -0.062100 0.626049 124.006126 142.804947
4 142.804947 -0.000060 0.000060 -0.063798 0.635085 124.537560 142.804947
5 142.804947 -0.000060 0.000060 -0.050145 0.653833 126.606438 142.804947
[BN_R_Leg_Front03]
1 124.143005 -0.000060 -0.000156 -0.351199 -0.341044 -130.556641 124.143005
2 124.143005 -0.000060 -0.000156 -0.351594 -0.338617 -130.834030 124.143005
3 124.143005 -0.000060 -0.000156 -0.352000 -0.336192 -131.111404 124.143005
4 124.143005 -0.000060 -0.000156 -0.355287 -0.335441 -131.529358 124.143005
5 124.143005 -0.000060 -0.000156 -0.355739 -0.327329 -133.119049 124.143005
[BN_R_Leg_Rear02]
1 139.939011 -0.000149 0.000015 0.004700 -0.254992 -120.691574 139.939011
2 139.939011 -0.000149 0.000015 0.000875 -0.253785 -119.934639 139.939011
3 139.939011 -0.000149 0.000015 -0.002934 -0.252529 -119.177681 139.939011
4 139.939011 -0.000149 0.000015 -0.009193 -0.256686 -117.501602 139.939011
5 139.939011 -0.000149 0.000015 -0.019114 -0.260478 -114.268593 139.939011
[BN_R_Leg_Rear03]
1 142.839417 0.000075 0.000119 0.002144 -0.000955 138.016159 142.839417
2 142.839417 0.000075 0.000119 0.002149 -0.000944 137.434967 142.839417
3 142.839417 0.000075 0.000119 0.002154 -0.000933 136.853775 142.839417
4 142.839417 0.000075 0.000119 0.002164 -0.000908 135.526459 142.839417
5 142.839417 0.000075 0.000119 0.002185 -0.000858 132.858017 142.839417
[BN_SackDef01]
1 249.782364 -3.760643 42.949486 -128.408218 -44.374973 -11.740845 253.475906
2 249.782364 -3.760644 42.949486 -128.408218 -44.374973 -11.740845 253.475906
3 249.782364 -3.760646 42.949486 -128.408218 -44.374973 -11.740845 253.475906
4 249.782364 -3.760647 42.949486 -128.408218 -44.374973 -11.740845 253.475906
5 249.782364 -3.760649 42.949486 -128.408218 -44.374973 -11.740845 253.475906
[BN_SackDef02]
1 138.789810 -62.131634 45.674427 32.077126 -27.375721 -88.781525 158.773758
2 138.789810 -62.131634 45.674427 32.077126 -27.375721 -88.781525 158.773758
3 138.789810 -62.131634 45.674427 32.077126 -27.375721 -88.781525 158.773758
4 138.789810 -62.131634 45.674427 32.077126 -27.375721 -88.781525 158.773758
5 138.789810 -62.131634 45.674427 32.077126 -27.375721 -88.781525 158.773758
[BN_SackDef03]
1 249.782288 -3.760643 -42.949627 18.144459 44.375008 -11.740894 253.475845
2 249.782288 -3.760642 -42.949627 18.144459 44.375008 -11.740894 253.475845
3 249.782288 -3.760642 -42.949627 18.144459 44.375008 -11.740894 253.475845
4 249.782288 -3.760642 -42.949627 18.144459 44.375008 -11.740894 253.475845
5 249.782288 -3.760641 -42.949627 18.144459 44.375008 -11.740894 253.475845
[BN_SackDef04]
1 138.789810 -62.131557 -45.674416 146.059982 27.375723 -88.781555 158.773727
2 138.789810 -62.131557 -45.674416 146.059982 27.375723 -88.781555 158.773727
3 138.789810 -62.131557 -45.674416 146.059982 27.375723 -88.781555 158.773727
4 138.789810 -62.131557 -45.674416 146.059982 27.375723 -88.781555 158.773727
5 138.789810 -62.131557 -45.674416 146.059982 27.375723 -88.781555 158.773727
[BN_SackDef05]
1 118.790161 46.167183 -63.831203 0.155741 51.314110 90.605110 142.537476
2 118.790161 46.167183 -63.831203 0.155741 51.314110 90.605110 142.537476
3 118.790161 46.167183 -63.831203 0.155741 51.314110 90.605110 142.537476
4 118.790161 46.167183 -63.831203 0.155741 51.314110 90.605110 142.537476
5 118.790161 46.167183 -63.831203 0.155741 51.314110 90.605110 142.537476
[BN_SackDef06]
1 118.790237 46.167278 63.831188 152.058487 -51.314072 90.605019 142.537567
2 118.790237 46.167278 63.831188 152.058487 -51.314072 90.605019 142.537567
3 118.790237 46.167274 63.831188 152.058487 -51.314072 90.605019 142.537567
4 118.790237 46.167274 63.831188 152.058487 -51.314072 90.605019 142.537567
5 118.790237 46.167274 63.831188 152.058487 -51.314072 90.605019 142.537567
